{"title":"Johnny English[2003].BRRip.720p.x264 Dual &lt;a class=&quot;__cf_email__&quot; href=&quot;/cdn-cgi/l/email-protection&quot; data-cfemail=&quot;eeaf9b8a8781c0a687808a87c0a5ae9c9a8785c0ab96aa&quot;&gt;[email protected]&lt;/a&gt;&lt;script cf-hash='f9e31' type=&quot;text/javascript&quot;&gt;/* &lt;![CDATA[ */!function(){try{var t=&quot;currentScript&quot;in document?document.currentScript:function(){for(var t=document.getElementsByTagName(&quot;script&quot;),e=t.length;e--;)if(t[e].getAttribute(&quot;cf-hash&quot;))return t[e]}();if(t&amp;&amp;t.previousSibling){var e,r,n,i,c=t.previousSibling,a=c.getAttribute(&quot;data-cfemail&quot;);if(a){for(e=&quot;&quot;,r=parseInt(a.substr(0,2),16),n=2;a.length-n;n+=2)i=parseInt(a.substr(n,2),16)^r,e+=String.fromCharCode(i);e=document.createTextNode(e),c.parentNode.replaceChild(e,c)}}}catch(u){}}();/* ]]&gt; */&lt;/script&gt;","uid":8917050,"size":746048209,"categoryP":"video","categoryS":"hd___movies","magnet":"?xt=urn:btih:1d6a79d539e0f8b6a4e4c5c5e3db9b855f44b9af&amp;dn=Johnny+English%5B2003%5D.BRRip.720p.x264+Dual+Audio.Hindi.K%40rtik.ExD&amp;tr=udp%3A%2F%2Ftracker.openbittorrent.com%3A80&amp;tr=udp%3A%2F%2Fopen.demonii.com%3A1337&amp;tr=udp%3A%2F%2Ftracker.coppersurfer.tk%3A6969&amp;tr=udp%3A%2F%2Fexodus.desync.com%3A6969","seeders":3,"leechers":3,"uploader":"manucs2004","files":-1,"time":1379167012,"description":"Johnny English [2003].BRRip.720p.x264 Dual Audio [Hindi+English].by K@rtik [ExD Exclusive\n\n\nSeeding from High Speed Seed Box\n\n\n\nRip Information\nCode:\nFormat : Matroska Format version : Version 2 File size : 697 MiB Duration : 1h 27mn Overall bit rate : 1 115 Kbps Movie name : Johnny English [2003].BRRip.720p.x264 Dual Audio [Hindi+English].by K@rtik [ExD Exclusive] Encoded date : UTC 2012-07-17 02:13:53\n\nVideo\nCode:\nFormat : AVC Format/Info : Advanced Video Codec Format profile : &lt;a class=&quot;__cf_email__&quot; href=&quot;/cdn-cgi/l/email-protection&quot; data-cfemail=&quot;2860414f4068641b0619&quot;&gt;[email&amp;#160;protected]&lt;/a&gt;&lt;script cf-hash='f9e31' type=&quot;text/javascript&quot;&gt;\n/* &lt;![CDATA[ */!function(){try{var t=&quot;currentScript&quot;in document?document.currentScript:function(){for(var t=document.getElementsByTagName(&quot;script&quot;),e=t.length;e--;)if(t[e].getAttribute(&quot;cf-hash&quot;))return t[e]}();if(t&amp;&amp;t.previousSibling){var e,r,n,i,c=t.previousSibling,a=c.getAttribute(&quot;data-cfemail&quot;);if(a){for(e=&quot;&quot;,r=parseInt(a.substr(0,2),16),n=2;a.length-n;n+=2)i=parseInt(a.substr(n,2),16)^r,e+=String.fromCharCode(i);e=document.createTextNode(e),c.parentNode.replaceChild(e,c)}}}catch(u){}}();/* ]]&gt; */&lt;/script&gt; Format settings, CABAC : Yes Format settings, ReFrames : 4 frames Muxing mode : Header stripping Codec ID : V_MPEG4/ISO/AVC Duration : 1h 27mn Bit rate : 859 Kbps Width : 1 280 pixels Height : 688 pixels Display aspect ratio : 1.860 Frame rate : 23.976 fps Color space : YUV Chroma subsampling : 4:2:0 Bit depth : 8 bits Scan type : Progressive Bits/(Pixel*Frame) : 0.041 Stream size : 523 MiB (75%) Title : K@rtik Writing library : x264 core 125 r2200 999b753\n\nAudio 1\nCode:\nFormat : AC-3 Format/Info : Audio Coding 3 Mode extension : CM (complete main) Format settings, Endianness : Big Muxing mode : Header stripping Codec ID : A_AC3 Duration : 1h 27mn Bit rate mode : Constant Bit rate : 128 Kbps Channel(s) : 2 channels Channel positions : Front: L R Sampling rate : 48.0 KHz Bit depth : 16 bits Compression mode : Lossy Stream size : 80.0 MiB (11%) Title : K@rtik Language : English\n\nAudio 2\nCode:\nFormat : AC-3 Format/Info : Audio Coding 3 Mode extension : CM (complete main) Format settings, Endianness : Big Muxing mode : Header stripping Codec ID : A_AC3 Duration : 1h 27mn Bit rate mode : Constant Bit rate : 128 Kbps Channel(s) : 2 channels Channel positions : Front: L R Sampling rate : 48.0 KHz Bit depth : 16 bits Compression mode : Lossy Stream size : 80.0 MiB (11%) Title : K@rtik Language : Hindi Default : Yes\n\n\n\nSCREEN SHOTS:\n &lt;a href=&quot;\nhttp://img5.imageshack.us/img5/2637/kdqg.png&quot; rel=&quot;nofollow&quot; target=&quot;_NEW&quot;&gt;\nhttp://img5.imageshack.us/img5/2637/kdqg.png&lt;/a&gt;\n &lt;a href=&quot;\nhttp://img585.imageshack.us/img585/310/cy6g.png&quot; rel=&quot;nofollow&quot; target=&quot;_NEW&quot;&gt;\nhttp://img585.imageshack.us/img585/310/cy6g.png&lt;/a&gt;\n &lt;a href=&quot;\nhttp://img4.imageshack.us/img4/2383/udt3.png&quot; rel=&quot;nofollow&quot; target=&quot;_NEW&quot;&gt;\nhttp://img4.imageshack.us/img4/2383/udt3.png&lt;/a&gt;\n &lt;a href=&quot;\nhttp://img571.imageshack.us/img571/52/ld54.png&quot; rel=&quot;nofollow&quot; target=&quot;_NEW&quot;&gt;\nhttp://img571.imageshack.us/img571/52/ld54.png&lt;/a&gt;\n &lt;a href=&quot;\nhttp://img401.imageshack.us/img401/9253/sg49.png&quot; rel=&quot;nofollow&quot; target=&quot;_NEW&quot;&gt;\nhttp://img401.imageshack.us/img401/9253/sg49.png&lt;/a&gt;\n &lt;a href=&quot;\nhttp://img829.imageshack.us/img829/5457/uexg.png&quot; rel=&quot;nofollow&quot; target=&quot;_NEW&quot;&gt;\nhttp://img829.imageshack.us/img829/5457/uexg.png&lt;/a&gt;\n &lt;a href=&quot;\nhttp://img34.imageshack.us/img34/10/xv45.png&quot; rel=&quot;nofollow&quot; target=&quot;_NEW&quot;&gt;\nhttp://img34.imageshack.us/img34/10/xv45.png&lt;/a&gt;\n\n\nseed and enjoy....by K@rtik ","torrent":{"xt":"urn:btih:1d6a79d539e0f8b6a4e4c5c5e3db9b855f44b9af","amp;dn":"Johnny+English%5B2003%5D.BRRip.720p.x264+Dual+Audio.Hindi.K%40rtik.ExD","amp;tr":["udp%3A%2F%2Ftracker.openbittorrent.com%3A80","udp%3A%2F%2Fopen.demonii.com%3A1337","udp%3A%2F%2Ftracker.coppersurfer.tk%3A6969","udp%3A%2F%2Fexodus.desync.com%3A6969"],"infoHash":"1d6a79d539e0f8b6a4e4c5c5e3db9b855f44b9af","infoHashBuffer":{"type":"Buffer","data":[29,106,121,213,57,224,248,182,164,228,197,197,227,219,155,133,95,68,185,175]},"announce":[],"urlList":[]}}